<?xml version="1.0" encoding="iso-8859-1"?>
<!-- Generator: Adobe Illustrator 19.0.0, SVG Export Plug-In . SVG Version: 6.00 Build 0)  -->
<svg version="1.1" id="Capa_1" xmlns="http://www.w3.org/2000/svg" xmlns:xlink="http://www.w3.org/1999/xlink" x="0px" y="0px"
	 viewBox="0 0 512 512" style="enable-background:new 0 0 512 512;" xml:space="preserve">
<path style="fill:#E8E8E8;" d="M255.995,0.005C114.613,0.005,0,114.618,0,256s114.613,255.995,255.995,255.995
	S511.99,397.382,511.99,256S397.377,0.005,255.995,0.005z M255.995,377.08c-66.872,0-121.08-54.208-121.08-121.08
	s54.208-121.08,121.08-121.08s121.08,54.208,121.08,121.08S322.867,377.08,255.995,377.08z"/>
<path style="fill:#C1C0BF;" d="M38.75,256c0-134.862,104.289-245.368,236.623-255.274c-6.395-0.481-12.852-0.721-19.372-0.721
	C114.619,0.005,0.006,114.618,0.006,256s114.613,255.995,255.995,255.995c6.52,0,12.977-0.24,19.372-0.721
	C143.039,501.368,38.75,390.862,38.75,256z M294.745,134.92c-6.593,0-13.061,0.522-19.372,1.557
	C333.04,145.734,377.081,195.721,377.081,256S333.04,366.266,275.373,375.523c6.311,1.034,12.779,1.557,19.372,1.557
	c66.872,0,121.08-54.208,121.08-121.08S361.617,134.92,294.745,134.92z"/>
<path style="fill:#FF605D;" d="M511.99,256c-31.169-10.679-64.239-13.74-96.505-9.195c-12.988,1.829-25.85,4.89-38.399,9.195
	c0,60.279-44.042,110.255-101.698,119.523h-0.01c-6.311,1.034-12.779,1.557-19.372,1.557h-0.01
	c-14.628,42.704-14.963,88.971-1.024,131.843c0.334,1.024,0.679,2.038,1.024,3.061v0.01h0.01c1.139,0,2.288-0.01,3.427-0.021
	c0.919-0.01,1.849-0.031,2.769-0.052c1.243-0.031,2.476-0.063,3.699-0.115c1.055-0.042,2.1-0.084,3.156-0.136
	c0.094-0.01,0.199-0.01,0.293-0.021c1.034-0.052,2.069-0.104,3.093-0.178c0.982-0.052,1.964-0.125,2.936-0.199
	C407.711,501.368,512,390.862,512,256L511.99,256L511.99,256z M255.995,0.016v-0.01C114.613,0.016,0.01,114.618,0.01,256h0.01
	c12.706-4.357,25.735-7.44,38.89-9.268c32.099-4.441,64.991-1.348,96.014,9.268c0-66.872,54.198-121.07,121.07-121.08
	c-14.628-42.704-14.963-88.971-1.024-131.843C255.305,2.053,255.65,1.04,255.995,0.016z"/>
<path style="fill:#E04848;" d="M255.995,0.016v-0.01C114.613,0.016,0.01,114.618,0.01,256h0.01
	c12.706-4.357,25.735-7.44,38.89-9.268C43.321,123.06,135.447,21.728,254.971,3.077C255.305,2.053,255.65,1.04,255.995,0.016z
	 M415.485,246.805c-12.988,1.829-25.85,4.89-38.399,9.195c0,60.279-44.042,110.255-101.698,119.523
	c6.311,1.034,12.768,1.557,19.362,1.557c66.872,0,121.08-54.208,121.08-121.08C415.83,252.907,415.715,249.846,415.485,246.805z"/>
<g>
</g>
<g>
</g>
<g>
</g>
<g>
</g>
<g>
</g>
<g>
</g>
<g>
</g>
<g>
</g>
<g>
</g>
<g>
</g>
<g>
</g>
<g>
</g>
<g>
</g>
<g>
</g>
<g>
</g>
</svg>
