<svg xmlns="http://www.w3.org/2000/svg" width="1280" height="640"><g><title>background</title><rect id="canvas_background" width="1282" height="642" x="-1" y="-1" fill="#fff"/><g id="canvasGrid" width="100%" height="100%" x="0" y="0" display="none"><rect width="100%" height="100%" x="0" y="0" fill="url(#gridpattern)" stroke-width="0"/></g></g><g><title>Layer 1</title><path id="svg_1" fill="plum" fill-opacity=".3" stroke="#000" stroke-width="0" d="m0.5,-0.54688l-0.5,255.54688l255,-255l-254.5,-0.54688z"/><path id="svg_3" fill="#9370db" fill-opacity=".2" stroke="#000" stroke-opacity="null" stroke-width="0" d="m-0.5,-0.54688l0.5,120.54688l123,-120l-123.5,-0.54688z"/><path id="svg_4" fill="plum" fill-opacity=".3" stroke="#000" stroke-width="0" d="m1024.5,383.45312l-0.5,255.54688l255,-255l-254.5,-0.54688z" transform="rotate(179.88941955566406 1151.5,511.22656250000006)"/><path id="svg_5" fill="#9370db" fill-opacity=".2" stroke="#000" stroke-opacity="null" stroke-width="0" d="m1156.5,519.45312l0.5,120.54688l123,-120l-123.5,-0.54688z" transform="rotate(179.71957397460938 1218.2500000000002,579.7265625)"/><path id="svg_6" fill="#0c3299" fill-opacity=".05" stroke="#000" stroke-opacity="null" stroke-width="0" d="m-81.5,638.45313l568.5,-639.45313l245,-1l-526,642l-287.5,-1.54687z"/><text id="svg_8" x="792.5" y="297.453" fill="#000" fill-opacity=".8" stroke="#000" stroke-opacity="null" stroke-width="0" font-family="Helvetica, Arial, sans-serif" font-size="65" font-weight="normal" text-anchor="start" xml:space="preserve">vue-float-menu</text><text id="svg_11" x="916.5" y="352.453" fill="#000" stroke="#000" stroke-opacity="null" stroke-width="0" font-family="Helvetica, Arial, sans-serif" font-size="28" text-anchor="start" xml:space="preserve" style="cursor:move">draggable menu for Vue</text></g></svg>